<svg width="154" height="45" viewBox="0 0 154 45" xmlns="http://www.w3.org/2000/svg" xmlns:xlink="http://www.w3.org/1999/xlink">
    <defs>
        <path id="3jbe0v6zwa" d="M0 .391h43.069v43.15H0z"/>
    </defs>
    <g fill="none" fill-rule="evenodd">
        <path fill="#8C99F6" d="m73.483 33.901-8.57-19.814-3.466 18.741h-3.202l5.594-28.667 9.644 22.81 9.643-22.81 5.594 28.667h-3.202l-3.503-18.741zM91.96 41.229l4.671-10.096-6.762-15.54h3.41l5.01 12.376 5.311-12.375h3.24L95.275 41.229zM113.13 17.477h1.659c2.812 0 4.705-.33 5.678-.989.973-.659 1.46-1.81 1.46-3.456 0-1.758-.5-2.995-1.497-3.71-.999-.716-2.88-1.074-5.641-1.074h-1.658v9.23zm0 2.976v12.375h-3.2V5.253h5.782c2.02 0 3.51.107 4.463.32.955.214 1.784.565 2.487 1.055.878.628 1.566 1.488 2.062 2.58.496 1.093.745 2.305.745 3.636 0 1.33-.25 2.542-.745 3.635-.496 1.093-1.184 1.953-2.062 2.58-.703.503-1.53.86-2.477 1.074-.948.214-2.44.32-4.473.32h-2.581zM139.33 22.261c-.1-1.519-.605-2.69-1.516-3.512-.91-.823-2.156-1.234-3.738-1.234-1.432 0-2.625.43-3.579 1.29-.954.86-1.507 2.012-1.657 3.456h10.49zm3.165 2.392H128.84v.264c0 1.846.527 3.337 1.582 4.474 1.054 1.136 2.43 1.704 4.125 1.704 1.155 0 2.197-.31 3.127-.932.929-.622 1.75-1.56 2.467-2.816l2.241 1.507c-.866 1.557-1.972 2.73-3.315 3.522-1.343.79-2.9 1.186-4.67 1.186-2.625 0-4.747-.866-6.367-2.599-1.62-1.732-2.43-4.005-2.43-6.818 0-2.7.804-4.91 2.411-6.63 1.607-1.72 3.673-2.58 6.197-2.58 2.549 0 4.567.816 6.055 2.448 1.488 1.632 2.232 3.861 2.232 6.686v.584zM147.392 18.023h-3.164v-2.43h3.164v-6.95h3.014v6.95h3.164v2.43h-3.164v14.805h-3.014z"/>
        <g transform="translate(0 .067)">
            <mask id="5fnk9kj15b" fill="#fff">
                <use xlink:href="#3jbe0v6zwa"/>
            </mask>
            <path d="M24.28 33.627a.98.98 0 0 0 .954-1 .986.986 0 0 0-1.016-.936.987.987 0 0 0-.922.964c0 .532.454.98.984.972m5.973-12.549c-.903.426-1.878.865-2.834 1.345-.604.303-1.018.118-1.358-.4-1.213-1.852-1.56-3.855-.772-5.927.664-1.743 1.093-3.458.46-5.364.745.655 1.288 2.167 1.077 3.205-.184.906-.482 1.794-.784 2.67-.486 1.408-.31 2.704.553 3.908.401.56.893.81 1.547.39 1.858-1.19 3.752-2.328 5.558-3.593.962-.672 1.013-1.12.465-2.168-1.488-2.846-3.516-5.296-6.38-6.75-2.802-1.423-5.898-1.666-8.995-.991-.605.131-1.21.503-1.694.91-1.902 1.6-4.006 2.508-6.543 2.227-.574-.063-1.162-.02-1.742.012-.532.03-.768.317-.739.879.115 2.185.895 4.05 2.672 5.381 1.266.948 2.637 1.754 3.9 2.704.696.522 1.427 1.114 1.863 1.842.93 1.553.872 3.147-.138 4.74-.753 1.189-1.492 2.438-1.938 3.76-.885 2.62-1 5.376-1.057 8.12l.203.101c.336-.548.766-1.06.99-1.652.45-1.194.75-2.445 1.183-3.647.503-1.395.952-2.832 1.656-4.126 1.022-1.878 2.803-2.782 4.864-3.172.593-.112.908.136.79.696-.25 1.2.163 1.86 1.328 2.313 1.445.56 2.235 1.797 2.541 3.29.145.706.48 1.13 1.121 1.447 1.112.55 1.173.808.574 1.885-.82 1.475-2.11 2.249-3.767 2.444-.138.017-.28.013-.419.021-.137.009-.273.02-.48.036.075.46.199.886.206 1.314.022 1.321.003 2.643-.006 3.965-.002.367-.19.496-.566.536-11.339 1.19-21.917-7.14-23.397-18.436C-1.339 13.28 6.301 2.807 17.901.72c11.862-2.135 23.461 6.373 24.973 18.33.788 6.241-.817 11.808-4.772 16.698a7.416 7.416 0 0 1-.37.416c-.03.03-.083.04-.125.06-1.984-2.066-3.738-4.297-4.694-7.033-.934-2.673-1.77-5.382-2.66-8.113" fill="#8C99F6" mask="url(#5fnk9kj15b)"/>
        </g>
        <path d="M19.58 12.197a1.028 1.028 0 0 1-1.103.994 1.005 1.005 0 0 1-.963-1.058c.016-.598.49-1.03 1.093-.995.556.033.992.508.974 1.06" fill="#8C99F6"/>
    </g>
</svg>
