<svg width="17" height="17" viewBox="0 0 17 17" xmlns="http://www.w3.org/2000/svg" xmlns:xlink="http://www.w3.org/1999/xlink">
    <defs>
        <path id="0cb4yrtkea" d="M.348.177h14.355v14.084H.348z"/>
        <path id="q7wsefllkc" d="M0 .169h4.74V4.76H0z"/>
    </defs>
    <g fill="none" fill-rule="evenodd">
        <g transform="translate(1.067 1.57)">
            <mask id="ydlls7bqzb" fill="#fff">
                <use xlink:href="#0cb4yrtkea"/>
            </mask>
            <path d="M9.332 11.495c.647-.09 1.145-.175 1.647-.225.362-.036.538-.222.603-.554.097-.501.205-1 .301-1.501.072-.374.017-.702-.283-.994a860.282 860.282 0 0 1-5.749-5.636c-.276-.273-.445-.233-.694.018-.75.758-1.514 1.503-2.286 2.24-.247.235-.264.41-.012.654 1.925 1.87 3.836 3.755 5.769 5.617.209.202.53.29.704.38m-.38.878c-.207-.13-.569-.276-.827-.526a658.233 658.233 0 0 1-5.685-5.57c-.317-.313-.55-.538-.971-.1-.254.264-.65.205-.906-.072C.3 5.819.255 5.476.557 5.172c.54-.545 1.092-1.08 1.64-1.616C3.247 2.529 4.284 1.49 5.359.489 5.56.3 5.92.157 6.19.179c.48.042.694.667.34 1.032-.386.398-.217.62.098.923 1.872 1.809 3.72 3.64 5.6 5.443.496.476.695.967.498 1.639-.157.536-.21 1.1-.343 1.644-.085.346 0 .596.257.84.615.588 1.213 1.194 1.812 1.798.103.103.235.229.248.354.014.136-.083.396-.155.404-.174.02-.413-.022-.537-.134-.569-.515-1.14-1.034-1.646-1.607-.41-.464-.855-.561-1.438-.437-.59.126-1.197.182-1.973.294" fill="#E87964" mask="url(#ydlls7bqzb)"/>
        </g>
        <g transform="translate(0 .18)">
            <mask id="hlu6xu9idd" fill="#fff">
                <use xlink:href="#q7wsefllkc"/>
            </mask>
            <path d="M0 3.616c.137-.199.225-.377.359-.51.885-.88 1.779-1.75 2.672-2.62.265-.258.562-.474.92-.166.354.307.208.633-.058.901-.237.238-.208.415.03.615.139.118.257.26.388.387.573.555.573.554-.014 1.127-.38.372-.79.72-1.134 1.124-.345.406-.61.363-.91-.021-.08-.104-.197-.18-.28-.282-.302-.367-.588-.617-1.025-.124-.096.109-.423.111-.594.042C.206 4.03.13 3.8 0 3.616" fill="#E87964" mask="url(#hlu6xu9idd)"/>
        </g>
        <path d="M10.055 8.06c-.349.27-.686.516-1.005.783-.188.158-.35.392-.087.572.11.075.406-.007.55-.109.257-.18.442-.459.7-.638.114-.08.4-.09.492-.008.487.432.953.888 1.389 1.368.142.156.236.41.24.62.006.41-.04.825-.122 1.226-.035.168-.197.41-.34.44-.705.145-1.457.314-2.051-.259-1.332-1.284-2.635-2.597-3.95-3.898-.25-.247-.235-.487.013-.729.467-.452.92-.919 1.398-1.36.349-.322.557-.243 1.049.237.322.314.098.48-.114.68-.17.159-.372.303-.49.495-.104.167-.112.39-.163.59.202-.035.435-.02.6-.115.21-.123.385-.32.544-.51.264-.316.504-.341.772-.011.134.165.287.314.575.626" fill="#E87964"/>
    </g>
</svg>
