<svg width="15" height="17" viewBox="0 0 15 17" xmlns="http://www.w3.org/2000/svg" xmlns:xlink="http://www.w3.org/1999/xlink">
    <defs>
        <path id="ay9yprjfba" d="M0 .24h14.757v15.133H0z"/>
    </defs>
    <g fill="none" fill-rule="evenodd">
        <g transform="translate(0 .073)">
            <mask id="0631gzqt6b" fill="#fff">
                <use xlink:href="#ay9yprjfba"/>
            </mask>
            <path d="M8.856 4.822c-.016-.018-.03-.037-.046-.053-.703-.721-1.398-1.451-2.112-2.16-.805-.798-1.771-1.083-2.866-.842-1.52.334-2.63 1.832-2.393 3.564a3.13 3.13 0 0 0 .879 1.796c.697.717 1.396 1.432 2.095 2.148.018.018.038.034.053.047l4.39-4.5m1.38 10.55c-1.238-.02-2.31-.46-3.19-1.358-1.907-1.95-3.811-3.904-5.715-5.858a4.564 4.564 0 0 1-1.283-2.61C-.299 3.07 1.276.828 3.576.35 5.163.02 6.564.443 7.719 1.615c1.91 1.938 3.804 3.893 5.704 5.842a4.573 4.573 0 0 1 1.29 2.639c.333 2.465-1.245 4.687-3.546 5.18-.306.066-.617.1-.931.096" fill="#F4C486" mask="url(#0631gzqt6b)"/>
        </g>
        <path d="M8.027 5.073a.328.328 0 0 1-.172.295.312.312 0 0 1-.344-.017.538.538 0 0 1-.083-.074L5.945 3.758a.374.374 0 0 1-.125-.272.324.324 0 0 1 .186-.306.314.314 0 0 1 .35.038c.022.016.04.037.06.056L7.905 4.8a.37.37 0 0 1 .122.273M5.513 3.166a.329.329 0 0 1-.333-.335.334.334 0 0 1 .326-.345.34.34 0 0 1 .336.338.334.334 0 0 1-.329.342" fill="#F4C486"/>
    </g>
</svg>
